<?xml version="1.0" standalone="no"?>
<!DOCTYPE svg PUBLIC "-//W3C//DTD SVG 20010904//EN"
 "http://www.w3.org/TR/2001/REC-SVG-20010904/DTD/svg10.dtd">
<svg version="1.0" xmlns="http://www.w3.org/2000/svg"
 width="512.000000pt" height="512.000000pt" viewBox="0 0 512.000000 512.000000"
 preserveAspectRatio="xMidYMid meet">
<metadata>
Created by potrace 1.11, written by Peter Selinger 2001-2013
</metadata>
<g transform="translate(0.000000,512.000000) scale(0.100000,-0.100000)"
fill="#000000" stroke="none">
<path d="M2378 5115 c-2 -1 -34 -5 -73 -9 -38 -3 -97 -10 -130 -16 -33 -6 -76
-13 -95 -16 -224 -36 -567 -163 -795 -294 -22 -13 -49 -28 -60 -34 -78 -43
-287 -200 -374 -280 -83 -78 -189 -185 -226 -231 -21 -24 -42 -42 -48 -38 -6
3 -7 1 -3 -5 8 -14 -24 -53 -37 -45 -6 3 -7 1 -4 -4 4 -6 -2 -21 -12 -34 -34
-45 -153 -221 -177 -265 -232 -416 -336 -799 -338 -1254 -1 -113 2 -239 6
-280 8 -86 40 -274 57 -338 7 -23 9 -47 6 -52 -3 -6 -1 -10 4 -10 6 0 11 -7
11 -15 0 -22 56 -192 94 -287 33 -80 124 -272 149 -313 230 -377 465 -629 804
-862 56 -39 99 -74 95 -78 -4 -5 -1 -5 6 -1 7 4 27 -2 45 -12 60 -38 234 -121
333 -160 166 -67 352 -119 519 -146 256 -42 591 -43 835 -2 330 54 633 166
920 341 47 28 96 58 109 66 13 8 32 21 41 29 49 44 176 135 185 132 6 -2 7 -1
4 3 -4 3 12 24 34 45 34 31 45 36 57 27 12 -9 13 -8 3 2 -9 11 2 27 55 80 37
37 91 95 120 129 30 34 58 59 63 56 5 -3 7 1 4 8 -3 7 5 24 17 38 13 14 43 54
68 90 24 36 48 67 52 68 4 2 8 8 8 13 0 5 18 38 39 73 148 241 286 601 325
846 3 19 8 44 10 55 2 12 7 48 11 80 4 33 10 69 12 80 2 11 6 112 7 225 4 255
-8 369 -69 654 -3 10 -12 44 -21 75 -9 31 -17 63 -19 71 -10 48 -87 236 -150
365 -318 650 -892 1132 -1590 1335 -223 64 -412 91 -677 95 -113 2 -208 2
-210 0z m478 -1571 c86 -22 154 -62 219 -128 101 -103 132 -191 134 -386 2
-175 -30 -273 -121 -375 l-44 -48 35 -38 c52 -55 55 -59 83 -119 40 -85 49
-149 47 -335 -1 -198 -16 -263 -81 -358 -68 -101 -160 -166 -273 -192 -84 -20
-518 -21 -593 -1 -115 31 -204 94 -270 193 -82 121 -76 57 -80 981 l-3 823
446 -1 c351 -1 458 -4 501 -16z"/>
<path d="M2119 3331 c-1 -32 -1 -580 0 -601 1 -13 45 -15 344 -15 323 1 344 2
387 21 115 53 159 148 153 328 -3 100 -24 162 -71 210 -75 79 -83 80 -469 81
l-343 2 -1 -26z"/>
<path d="M2137 2502 c-9 -2 -17 -9 -18 -15 -3 -65 0 -499 4 -521 9 -42 45
-107 75 -134 60 -54 106 -65 263 -67 80 -1 151 -5 158 -9 6 -4 11 -4 11 1 0 4
39 8 88 9 100 1 158 21 209 74 61 63 75 107 77 260 3 242 -31 324 -159 381
-47 21 -63 22 -370 23 -177 0 -329 0 -338 -2z"/>
</g>
</svg>
